<svg xmlns="http://www.w3.org/2000/svg" viewBox="0 0 320 320"><title>PA_app_order_management_navbar_logo</title><path d="M255.29,183.34A21.62,21.62,0,0,0,249.06,168L128.57,47.68q-6.39-6.41-17.18-10.86T91.67,32.36H21.57A20.77,20.77,0,0,0,6.4,38.76,20.72,20.72,0,0,0,0,53.93V124Q0,133,4.46,143.74t10.87,17L135.82,281.41A20.65,20.65,0,0,0,151,287.64a21.62,21.62,0,0,0,15.34-6.23l82.74-82.91a20.66,20.66,0,0,0,6.23-15.16ZM69.18,101.53a20.78,20.78,0,0,1-15.25,6.31A21.56,21.56,0,0,1,32.36,86.28,21.58,21.58,0,0,1,53.93,64.71,21.56,21.56,0,0,1,75.49,86.28a20.8,20.8,0,0,1-6.31,15.25Zm0,0" style="fill:#fff"/><path d="M313.76,168,193.28,47.69q-6.41-6.4-17.2-10.87t-19.71-4.46H118.63q8.93,0,19.71,4.46t17.19,10.87L276,168a21.58,21.58,0,0,1,6.24,15.34A20.63,20.63,0,0,1,276,198.5l-79.19,79.21a48.5,48.5,0,0,0,8.92,7.57,18.84,18.84,0,0,0,9.95,2.36A21.58,21.58,0,0,0,231,281.41l82.74-82.91A20.63,20.63,0,0,0,320,183.34,21.63,21.63,0,0,0,313.76,168Zm0,0" style="fill:#fff"/></svg>