<svg xmlns="http://www.w3.org/2000/svg" viewBox="0 0 320 320"><defs></defs><title>PA_app_cti_integration_topbar_logo</title><g id="CTI_app_topbar" data-name="CTI app topbar"><path class="cls-1" d="M121.66,198.34c28.21,28.22,60.88,55.19,73.79,42.27,18.5-18.48,29.89-34.59,70.65-1.83s9.45,54.6-8.46,72.52C237,332,159.92,312.38,83.77,236.23S-12,83,8.71,62.36c17.92-17.92,39.75-49.22,72.5-8.45s16.67,52.15-1.83,70.63c-12.9,12.92,14.06,45.59,42.28,73.8Z"/><path class="cls-1" d="M163.88,163H270a6.83,6.83,0,0,0,4.83-11.65L258.6,135a6.81,6.81,0,0,1,0-9.65L317,67a6.81,6.81,0,0,0,0-9.65L262.66,3A6.81,6.81,0,0,0,253,3l-58.4,58.4a6.81,6.81,0,0,1-9.65,0L168.7,45.14A6.83,6.83,0,0,0,157.05,50V156.12A6.83,6.83,0,0,0,163.88,163Z"/></g></svg>